<?xml version="1.0" encoding="utf-8"?><svg xmlns="http://www.w3.org/2000/svg" width="29.156" height="20.719" viewBox="0 0 29.156 20.719"><defs><style>.bcls-1{fill:#fff;fill-rule:evenodd}</style></defs><path id="bemail" class="bcls-1" d="M999.743 721.77l-8.846 8.874 8.846 8.875a2.578 2.578 0 00.257-1.109v-15.532a2.573 2.573 0 00-.257-1.108zm-2.307-1.48H973.4a2.51 2.51 0 00-1.1.259l11.3 11.359a2.547 2.547 0 003.625 0l11.306-11.359a2.51 2.51 0 00-1.095-.259zm-26.346 1.48a2.573 2.573 0 00-.257 1.108v15.532a2.578 2.578 0 00.257 1.109l8.846-8.875zm18.6 10.094l-1.252 1.264a4.247 4.247 0 01-6.041 0l-1.252-1.264-8.846 8.875a2.511 2.511 0 001.1.26h24.039a2.511 2.511 0 001.1-.26z" transform="translate(-970.844 -720.281)"/></svg>