<?xml version="1.0" encoding="utf-8"?><svg height="512" viewBox="0 0 24 24" width="512" xmlns="http://www.w3.org/2000/svg"><path d="M7.781 19.5c5.16 0 8.244-4.205 7.374-8.612a.749.749 0 00-.736-.605H7.782a.75.75 0 00-.75.75v2.32c0 .414.336.75.75.75h2.941C9.36 16.438 4.177 15.932 4.177 12c0-3.128 3.864-4.549 5.897-2.673a.749.749 0 001.017 0L13 7.569a.75.75 0 00-.007-1.109C8.166 2.12 0 5.436 0 12c0 4.136 3.491 7.5 7.781 7.5zm3.556-12.439l-.793.731C7.428 5.698 2.677 7.872 2.677 12c0 6.049 8.972 6.685 9.835 1.476a.75.75 0 00-.74-.873h-3.24v-.82h5.24C14.083 15.039 11.756 18 7.781 18 4.318 18 1.5 15.309 1.5 12c0-4.948 5.905-7.639 9.837-4.939zM21.25 14.75v-2h2c.992 0 .993-1.5 0-1.5h-2v-2c0-.992-1.5-.993-1.5 0v2h-2c-.992 0-.993 1.5 0 1.5h2v2c0 .992 1.5.993 1.5 0z"/></svg>