<?xml version="1.0" encoding="utf-8"?><svg xmlns="http://www.w3.org/2000/svg" width="28.344" height="28.156" viewBox="0 0 28.344 28.156"><defs><style>.jcls-1{fill:#fff;fill-rule:evenodd}</style></defs><path id="jskype" class="jcls-1" d="M623.15 726.12a12.94 12.94 0 00.162-2.04 13.107 13.107 0 00-13.146-13.067 13.335 13.335 0 00-2.051.161A7.954 7.954 0 00596 717.9a7.839 7.839 0 001.182 4.147 13.3 13.3 0 00-.16 2.039 13.163 13.163 0 0015.2 12.907 7.954 7.954 0 0012.115-6.722 7.814 7.814 0 00-1.187-4.151zm-6.743 3.9a5.449 5.449 0 01-2.44 1.865 9.782 9.782 0 01-3.794.671 9.112 9.112 0 01-4.342-.919 5.61 5.61 0 01-1.976-1.766 3.821 3.821 0 01-.766-2.162 1.434 1.434 0 01.469-1.07 1.678 1.678 0 011.193-.445 1.5 1.5 0 011 .347 2.659 2.659 0 01.683 1.012 6.333 6.333 0 00.721 1.286 2.858 2.858 0 001.082.843 4.282 4.282 0 001.842.333 4.413 4.413 0 002.548-.672 1.95 1.95 0 00.967-1.657 1.655 1.655 0 00-.516-1.272 3.443 3.443 0 00-1.363-.759q-.843-.266-2.265-.563a17.883 17.883 0 01-3.2-.966 5.192 5.192 0 01-2.059-1.516 3.754 3.754 0 01-.765-2.4 3.892 3.892 0 01.807-2.421 5.025 5.025 0 012.328-1.626 10.19 10.19 0 013.562-.565 9.5 9.5 0 012.83.374 6.22 6.22 0 011.989 1 4.274 4.274 0 011.161 1.312 2.863 2.863 0 01.369 1.35 1.64 1.64 0 01-1.64 1.592 1.417 1.417 0 01-.973-.3 3.843 3.843 0 01-.705-.944 4.215 4.215 0 00-1.141-1.419 3.527 3.527 0 00-2.132-.5 3.943 3.943 0 00-2.2.55 1.552 1.552 0 00-.823 1.3 1.248 1.248 0 00.275.807 2.343 2.343 0 00.777.594 5.45 5.45 0 001.012.4c.344.1.915.237 1.709.423q1.492.319 2.709.711a8.534 8.534 0 012.072.951 4.006 4.006 0 011.346 1.426 4.253 4.253 0 01.485 2.11 4.571 4.571 0 01-.836 2.688z" transform="translate(-596 -710)"/></svg>